<svg width="64" height="64" viewBox="0 0 64 64" fill="none" xmlns="http://www.w3.org/2000/svg">
  <rect width="64" height="64" rx="18" fill="#080706"/>
  <rect x="5" y="5" width="54" height="54" rx="15" stroke="#D7A94A" stroke-opacity="0.38" stroke-width="2"/>
  <path d="M39.7 13.6C33.2 14.8 28.2 20.5 28.2 27.4C28.2 35.2 34.5 41.5 42.3 41.5C45.2 41.5 47.9 40.6 50.1 39.1C47.5 46 40.8 50.9 33 50.9C22.9 50.9 14.7 42.7 14.7 32.6C14.7 22.9 22.3 14.9 31.9 14.3C34.7 14.1 37.3 14.6 39.7 15.6V13.6Z" fill="url(#moonGradient)"/>
  <path d="M24 33.4L32 25.4L40 33.4L32 41.4L24 33.4Z" stroke="#FFF1A8" stroke-opacity="0.72" stroke-width="1.8"/>
  <path d="M32 18.5V46.5M18 32.5H46" stroke="#B8872C" stroke-opacity="0.38" stroke-width="1"/>
  <defs>
    <linearGradient id="moonGradient" x1="15" y1="15" x2="50" y2="51" gradientUnits="userSpaceOnUse">
      <stop stop-color="#FFF1A8"/>
      <stop offset="0.48" stop-color="#D7A94A"/>
      <stop offset="1" stop-color="#8B5E1E"/>
    </linearGradient>
  </defs>
</svg>
